<svg width="24" height="22" viewBox="0 0 24 22" fill="none" xmlns="http://www.w3.org/2000/svg">
<path d="M10.9091 22C4.88416 22 0 17.0751 0 11C0 4.92487 4.88416 0 10.9091 0C14.4778 0 17.6462 1.72786 19.6366 4.39915L16.681 4.39924C15.1426 3.03049 13.122 2.2 10.9091 2.2C6.08915 2.2 2.18182 6.13989 2.18182 11C2.18182 15.8601 6.08915 19.8 10.9091 19.8C13.1225 19.8 15.1436 18.9691 16.6821 17.5998H19.6373C17.6471 20.2717 14.4782 22 10.9091 22ZM18.5455 15.4V12.1H9.81818V9.9H18.5455V6.6L24 11L18.5455 15.4Z" fill="#535353"/>
</svg>
