<svg width="24" height="24" viewBox="0 0 24 24" fill="none" xmlns="http://www.w3.org/2000/svg">
<path id="&#226;&#152;&#187;" d="M12 24C10.3401 24 8.78386 23.6888 7.33141 23.0663C5.90202 22.4438 4.63401 21.5908 3.52738 20.5072C2.42075 19.4006 1.5562 18.121 0.933717 16.6686C0.311239 15.2161 0 13.6599 0 12C0 10.3401 0.311239 8.79539 0.933717 7.36599C1.5562 5.91355 2.40922 4.63401 3.4928 3.52738C4.59942 2.42075 5.87896 1.5562 7.33141 0.933718C8.78386 0.311239 10.3401 0 12 0C13.6599 0 15.2161 0.311239 16.6686 0.933718C18.121 1.5562 19.389 2.42075 20.4726 3.52738C21.5793 4.61095 22.4438 5.87896 23.0663 7.33141C23.6888 8.78386 24 10.3401 24 12C24 13.6599 23.6888 15.2161 23.0663 16.6686C22.4438 18.121 21.5793 19.4006 20.4726 20.5072C19.389 21.5908 18.121 22.4438 16.6686 23.0663C15.2161 23.6888 13.6599 24 12 24ZM11.9654 19.0202C14.3401 19.0202 16.2536 17.7983 17.7061 15.3545L15.5965 14.2133C15.1124 14.951 14.5591 15.5043 13.9366 15.8732C13.3372 16.2421 12.6801 16.4265 11.9654 16.4265C11.2277 16.4265 10.5591 16.2421 9.95965 15.8732C9.36023 15.5043 8.81844 14.951 8.33429 14.2133L6.25937 15.3545C7.68876 17.7983 9.59078 19.0202 11.9654 19.0202ZM7.85014 11.2046C8.3804 11.2046 8.82997 11.0202 9.19885 10.6513C9.56772 10.2824 9.75216 9.83285 9.75216 9.30259C9.75216 8.77233 9.56772 8.32277 9.19885 7.95389C8.85303 7.56196 8.40346 7.36599 7.85014 7.36599C7.27378 7.36599 6.80115 7.56196 6.43228 7.95389C6.08646 8.32277 5.91354 8.77233 5.91354 9.30259C5.91354 9.83285 6.09798 10.2824 6.46686 10.6513C6.83573 11.0202 7.29683 11.2046 7.85014 11.2046ZM16.1499 11.2046C16.7032 11.2046 17.1643 11.0317 17.5331 10.6859C17.902 10.317 18.0865 9.85591 18.0865 9.30259C18.0865 8.74928 17.902 8.28818 17.5331 7.91931C17.1643 7.55043 16.7032 7.36599 16.1499 7.36599C15.5965 7.36599 15.1354 7.56196 14.7666 7.95389C14.3977 8.32277 14.2133 8.77233 14.2133 9.30259C14.2133 9.83285 14.3977 10.2824 14.7666 10.6513C15.1585 11.0202 15.6196 11.2046 16.1499 11.2046Z" fill="#222B20"/>
</svg>
