<svg width="20" height="20" viewBox="0 0 20 20" fill="none" xmlns="http://www.w3.org/2000/svg">
<g id="Frame">
<path id="Vector" d="M10 1.6665C14.1422 1.6665 17.5 5.02437 17.5 9.1665V15.4165C17.5 17.0273 16.1942 18.3332 14.5833 18.3332C13.5834 18.3332 12.7011 17.83 12.1756 17.0632C11.748 17.8213 10.9338 18.3332 10 18.3332C9.06625 18.3332 8.252 17.8213 7.82273 17.0627C7.29891 17.83 6.41654 18.3332 5.41667 18.3332C3.85953 18.3332 2.58739 17.1129 2.50432 15.5765L2.5 15.4165V9.1665C2.5 5.02437 5.85787 1.6665 10 1.6665ZM13.3333 10.8332H11.6667C11.6667 11.7537 10.9205 12.4998 10 12.4998C9.12133 12.4998 8.4015 11.8199 8.33792 10.9576L8.33333 10.8332H6.66667L6.67075 10.9995C6.75743 12.7632 8.21483 14.1665 10 14.1665C11.7852 14.1665 13.2426 12.7632 13.3292 10.9995L13.3333 10.8332ZM10 5.83317C9.0795 5.83317 8.33333 6.57936 8.33333 7.49984C8.33333 8.42034 9.0795 9.1665 10 9.1665C10.9205 9.1665 11.6667 8.42034 11.6667 7.49984C11.6667 6.57936 10.9205 5.83317 10 5.83317Z" fill="#3DB577"/>
</g>
</svg>
