<svg width="20" height="20" viewBox="0 0 20 20" fill="none" xmlns="http://www.w3.org/2000/svg">
<path d="M10 1.66667C14.1422 1.66667 17.5 5.02453 17.5 9.16667V15.4167C17.5 17.0275 16.1942 18.3333 14.5833 18.3333C13.5834 18.3333 12.7011 17.8302 12.1756 17.0633C11.748 17.8214 10.9338 18.3333 10 18.3333C9.06625 18.3333 8.252 17.8214 7.82273 17.0628C7.29891 17.8302 6.41654 18.3333 5.41667 18.3333C3.85953 18.3333 2.58739 17.1131 2.50432 15.5767L2.5 15.4167V9.16667C2.5 5.02453 5.85787 1.66667 10 1.66667ZM13.3333 10.8333H11.6667C11.6667 11.7538 10.9205 12.5 10 12.5C9.12133 12.5 8.4015 11.8201 8.33792 10.9578L8.33333 10.8333H6.66667L6.67075 10.9997C6.75743 12.7633 8.21483 14.1667 10 14.1667C11.7852 14.1667 13.2426 12.7633 13.3292 10.9997L13.3333 10.8333ZM10 5.83333C9.0795 5.83333 8.33333 6.57953 8.33333 7.5C8.33333 8.4205 9.0795 9.16667 10 9.16667C10.9205 9.16667 11.6667 8.4205 11.6667 7.5C11.6667 6.57953 10.9205 5.83333 10 5.83333Z" fill="#3DB577"/>
</svg>
